<svg width="859" height="222" viewBox="0 0 859 222" fill="none" xmlns="http://www.w3.org/2000/svg">
<path d="M706 84.5C696.5 117.5 688 125.5 666.096 126.5C680.596 88 664 68 613 89C613 67 642.072 41.5 666.096 41.5C690.12 41.5 709 59.5 706 84.5Z" fill="#A030CA"/>
<path d="M101.107 186V55.66H125.313V186H101.107ZM17.5028 186V55.66H41.7088V186H17.5028ZM27.5576 132.374V109.658H112.837V132.374H27.5576ZM187.797 187.862C179.729 187.862 172.405 185.628 165.826 181.159C159.247 176.69 153.971 170.607 149.999 162.911C146.026 155.215 144.04 146.464 144.04 136.657C144.04 126.85 146.026 118.099 149.999 110.403C153.971 102.707 159.371 96.6861 166.198 92.3414C173.025 87.9967 180.722 85.8244 189.287 85.8244C194.252 85.8244 198.783 86.5692 202.879 88.0588C206.976 89.4243 210.576 91.4104 213.679 94.0172C216.782 96.624 219.327 99.6032 221.313 102.955C223.424 106.306 224.851 109.906 225.596 113.754L220.568 112.451V87.8726H243.657V186H220.382V162.539L225.782 161.608C224.913 164.959 223.299 168.249 220.941 171.476C218.706 174.58 215.851 177.373 212.376 179.855C209.024 182.214 205.238 184.138 201.017 185.628C196.921 187.117 192.514 187.862 187.797 187.862ZM194.128 167.566C199.466 167.566 204.183 166.263 208.279 163.656C212.376 161.049 215.541 157.449 217.775 152.856C220.134 148.139 221.313 142.74 221.313 136.657C221.313 130.699 220.134 125.423 217.775 120.83C215.541 116.237 212.376 112.637 208.279 110.03C204.183 107.424 199.466 106.12 194.128 106.12C188.79 106.12 184.073 107.424 179.977 110.03C176.005 112.637 172.901 116.237 170.667 120.83C168.432 125.423 167.315 130.699 167.315 136.657C167.315 142.74 168.432 148.139 170.667 152.856C172.901 157.449 176.005 161.049 179.977 163.656C184.073 166.263 188.79 167.566 194.128 167.566ZM306.705 187.862C297.519 187.862 289.264 185.628 281.94 181.159C274.616 176.69 268.844 170.607 264.624 162.911C260.403 155.215 258.293 146.526 258.293 136.843C258.293 127.161 260.403 118.471 264.624 110.775C268.844 103.079 274.616 96.9964 281.94 92.5276C289.264 88.0588 297.519 85.8244 306.705 85.8244C315.518 85.8244 323.525 87.5002 330.725 90.8518C337.924 94.2034 343.51 98.8584 347.483 104.817L334.821 120.085C332.959 117.478 330.601 115.12 327.745 113.01C324.89 110.899 321.849 109.224 318.622 107.982C315.394 106.741 312.167 106.12 308.939 106.12C303.477 106.12 298.574 107.486 294.229 110.217C290.009 112.823 286.657 116.485 284.175 121.202C281.692 125.795 280.451 131.009 280.451 136.843C280.451 142.677 281.692 147.891 284.175 152.484C286.781 157.077 290.257 160.739 294.602 163.47C298.947 166.201 303.788 167.566 309.125 167.566C312.353 167.566 315.456 167.07 318.435 166.077C321.539 164.959 324.456 163.408 327.187 161.422C329.918 159.435 332.463 156.953 334.821 153.974L347.483 169.428C343.262 174.89 337.428 179.359 329.98 182.835C322.656 186.186 314.898 187.862 306.705 187.862ZM380.824 156.022L376.355 134.609L422.905 87.8726H453.442L380.824 156.022ZM359.411 186V48.212H382.314V186H359.411ZM425.698 186L389.576 142.243L405.775 128.464L454.001 186H425.698ZM466.079 186V87.8726H488.982V186H466.079ZM477.251 67.0182C472.658 67.0182 469.058 65.901 466.451 63.6666C463.969 61.3081 462.727 58.0185 462.727 53.798C462.727 49.8257 464.031 46.5983 466.638 44.1156C469.244 41.6329 472.782 40.3916 477.251 40.3916C481.968 40.3916 485.568 41.5709 488.051 43.9294C490.657 46.1638 491.961 49.4533 491.961 53.798C491.961 57.6461 490.657 60.8115 488.051 63.2942C485.444 65.7769 481.844 67.0182 477.251 67.0182ZM512.437 186V87.8726H534.781L535.153 107.982L530.871 110.217C532.112 105.748 534.533 101.713 538.133 98.1136C541.732 94.3896 546.015 91.4104 550.98 89.176C555.946 86.9416 561.035 85.8244 566.249 85.8244C573.697 85.8244 579.903 87.314 584.869 90.2932C589.958 93.2724 593.744 97.7412 596.227 103.7C598.834 109.658 600.137 117.106 600.137 126.044V186H577.235V127.719C577.235 122.754 576.552 118.658 575.186 115.43C573.821 112.079 571.711 109.658 568.856 108.168C566 106.555 562.525 105.81 558.428 105.934C555.077 105.934 551.973 106.493 549.118 107.61C546.387 108.603 543.967 110.092 541.857 112.079C539.87 113.941 538.257 116.113 537.015 118.596C535.898 121.078 535.34 123.809 535.34 126.788V186H523.981C521.747 186 519.637 186 517.651 186C515.789 186 514.051 186 512.437 186ZM621.992 186L615.848 170.732L654.95 126.975C657.184 124.74 659.481 122.195 661.839 119.34C664.198 116.361 666.432 113.32 668.542 110.217C670.777 106.989 672.577 103.886 673.942 100.907C675.308 97.8033 675.99 94.9482 675.99 92.3414C675.99 88.9898 675.246 86.0727 673.756 83.59C672.39 81.1073 670.404 79.1833 667.798 77.8178C665.191 76.4523 661.963 75.7696 658.115 75.7696C654.764 75.7696 651.474 76.7627 648.247 78.7488C645.143 80.6108 642.226 83.3417 639.495 86.9416C636.888 90.4173 634.716 94.5758 632.978 99.417L614.731 88.6174C616.965 81.4177 620.317 75.211 624.785 69.9974C629.378 64.6597 634.716 60.5633 640.799 57.7082C647.005 54.8531 653.708 53.4256 660.908 53.4256C668.356 53.4256 674.997 54.9773 680.832 58.0806C686.666 61.1839 691.259 65.4665 694.61 70.9284C698.086 76.3903 699.824 82.7831 699.824 90.107C699.824 92.8379 699.514 95.693 698.893 98.6722C698.272 101.527 697.279 104.569 695.914 107.796C694.672 110.899 692.997 114.189 690.886 117.665C688.776 121.016 686.231 124.554 683.252 128.278C680.397 132.002 677.108 135.912 673.384 140.009L643.778 172.221L640.054 163.656H704.479V186H621.992Z" fill="url(#paint0_linear_407_2485)"/>
<path d="M627 83.0527L639.986 81.8236L643.29 82.0951L647.172 80.2097L650.7 78.1704L652.116 78.7857L661.081 77.4592L666.216 73.7742L670.928 70.2971L675.082 67.4892L676.766 65L677.834 65.504L678.417 66.8821L679.396 67.8824L680.584 69.9797L681.668 74.6279L682.247 75.1772L681.462 75.713L681.15 76.6428L679.479 79.217L683.29 76.8643L684.536 76.6376L685.304 76.8032L685.648 77.701L685.96 79.7395L686 81.3475L684.609 82.7794L681.586 85.425L678.424 89.3182L674.653 94.6319L671.809 100.868L669.717 106.356L667.565 114.693L666.342 117.491L667.855 111.192L662.63 118.603L664.5 113.5L660.5 118.5L654.145 114.098L647.944 109.84L647.299 109.416L642.604 106.356L648.734 110.334L657.62 116.445L658.447 117.039L659.095 117.5L657.62 116.445L648.5 110.188L660.5 118.5L659.095 117.5L654.584 114.402L650 111.192L641.342 105.5L640.605 105L640.321 104.807L641 105.268L646.294 108.755L647.57 109.594L650 111.192L660.5 118.5L646.661 109L632 99.5L634.093 97.8256L630.348 91.4356L628.367 87.1255L627 83.0527Z" fill="black"/>
<defs>
<linearGradient id="paint0_linear_407_2485" x1="27.4149" y1="111" x2="849.787" y2="123.036" gradientUnits="userSpaceOnUse">
<stop stop-color="#C92B7B"/>
<stop offset="1" stop-color="#9231E3"/>
</linearGradient>
</defs>
</svg>
